<?xml version="1.0"?>
<svg width="204" height="204" xmlns="http://www.w3.org/2000/svg" xmlns:svg="http://www.w3.org/2000/svg">
 <defs>
  <linearGradient id="paint0_linear_16_339" x1="-0.06" x2="1.12" y1="0.45" y2="0.45">
   <stop stop-color="#AA367C"/>
   <stop offset="1" stop-color="#4A2FBD"/>
  </linearGradient>
 </defs>
 <g class="layer">
  <title>Layer 1</title>
  <path d="m187.64,69.9c5.45,-2.04 11.59,0.71 13.06,6.35c5.54,21.24 4.1,43.8 -4.26,64.3c-9.7,23.76 -28,42.99 -51.26,53.86c-23.25,10.87 -49.75,12.56 -74.2,4.76c-24.45,-7.81 -45.06,-24.54 -57.72,-46.87c-12.65,-22.33 -16.43,-48.61 -10.56,-73.6c5.86,-24.99 20.93,-46.85 42.19,-61.22c21.27,-14.37 47.17,-20.19 72.55,-16.31c21.88,3.35 41.97,13.71 57.35,29.38c4.08,4.15 3.29,10.83 -1.26,14.46c-4.56,3.63 -11.15,2.82 -15.34,-1.23c-11.98,-11.56 -27.31,-19.22 -43.95,-21.76c-20.12,-3.08 -40.67,1.54 -57.54,12.94c-16.87,11.39 -28.82,28.74 -33.47,48.56c-4.66,19.82 -1.66,40.67 8.38,58.38c10.04,17.71 26.39,30.99 45.78,37.18c19.4,6.19 40.42,4.85 58.86,-3.77c18.45,-8.62 32.97,-23.88 40.66,-42.73c6.36,-15.58 7.67,-32.67 3.9,-48.89c-1.31,-5.67 1.38,-11.74 6.83,-13.79z" fill="url(#paint0_linear_16_339)" id="svg_1"/>
  <text fill="#ffffff" font-family="Fantasy" font-size="24" id="svg_3" stroke-width="0" style="cursor: move;" text-anchor="middle" transform="matrix(1.93903 0 0 1.47097 -54.3973 -35.315)" x="83.21" xml:space="preserve" y="102.12">80%</text>
 </g>
</svg>